<svg xmlns="http://www.w3.org/2000/svg" width="44.381" height="47.74" viewBox="0 0 44.381 47.74"><defs><style>.a{fill:#fff;}</style></defs><g transform="translate(0 0)"><path class="a" d="M43.682,39.279a.7.7,0,0,0-.7.7V44.9a1.445,1.445,0,0,1-1.444,1.444h-16.4A1.445,1.445,0,0,1,23.694,44.9V39.978a.7.7,0,0,0-1.4,0V44.9a2.822,2.822,0,0,0,.395,1.444h-1.9L19.322,34.377l.653-1.737,1.084.659a1.43,1.43,0,0,0,.744.208,1.447,1.447,0,0,0,1.178-.6l2.73-3.818a29.064,29.064,0,0,1,3.7,1.438,1.622,1.622,0,0,0-.109.586v1.354H25.137a2.857,2.857,0,0,0-2.84,2.783c0,.009,0,.019,0,.028a5.2,5.2,0,0,0,5.2,5.1h2.895v.053a1.079,1.079,0,0,0,1.078,1.078H35.2a1.079,1.079,0,0,0,1.078-1.078v-.053h2.895a5.2,5.2,0,0,0,5.2-5.1c0-.009,0-.019,0-.028a2.856,2.856,0,0,0-2.84-2.783H37.371V31.11a1.794,1.794,0,0,0-1.848-1.729H31.154a1.95,1.95,0,0,0-.656.113,30.415,30.415,0,0,0-4.75-1.858l-2.466-1.817a1.951,1.951,0,0,0-1.945-.223V24.427a14.809,14.809,0,0,0,1.833-1.589c1.514-1.512,2.921-3.267,2.964-5.856,0,0,0-.009,0-.013v-.335a2.674,2.674,0,0,0,2.67-2.672v-.933a2.66,2.66,0,0,0-.44-1.467V6.484a3.109,3.109,0,0,0-.678-1.935,5.971,5.971,0,0,0,.349-2.017V.944A.945.945,0,0,0,27.09,0H12.324A4.223,4.223,0,0,0,8.154,3.493a3.132,3.132,0,0,0-2.3,2.99v5.077a2.657,2.657,0,0,0-.44,1.467v.933a2.674,2.674,0,0,0,2.671,2.672h.03v.4s0,.009,0,.014c.06,2.587,1.48,4.333,3,5.834a15.062,15.062,0,0,0,1.76,1.517v1.2a1.951,1.951,0,0,0-1.942.224L8.471,27.634a30.441,30.441,0,0,0-5.1,2.032A6.129,6.129,0,0,0,0,35.157V37.4a.7.7,0,0,0,1.4,0V35.157A4.737,4.737,0,0,1,4,30.913a29.006,29.006,0,0,1,4.5-1.828l2.73,3.819a1.447,1.447,0,0,0,1.922.394l1.088-.661.647,1.738L13.421,46.341H6.579V40.789a.7.7,0,1,0-1.4,0v5.552H1.8a.4.4,0,0,1-.4-.4v-5.27a.7.7,0,1,0-1.4,0v5.27a1.805,1.805,0,0,0,1.8,1.8H41.539A2.846,2.846,0,0,0,44.382,44.9V39.978a.7.7,0,0,0-.7-.7Zm-8.8.831h-3.09v-.864h3.09Zm.64-9.331c.244,0,.449.152.449.331v1.354H33.594a6.151,6.151,0,0,0-1.207-1.685ZM30.7,31.2a4.749,4.749,0,0,1,1.276,1.262H30.7Zm10.835,2.661a1.45,1.45,0,0,1,1.441,1.4,3.824,3.824,0,0,1-3.8,3.716H36.282v-.053A1.079,1.079,0,0,0,35.2,37.848H31.473a1.079,1.079,0,0,0-1.078,1.078v.053H27.5a3.824,3.824,0,0,1-3.8-3.716,1.45,1.45,0,0,1,1.441-1.4Zm-19.794-6.89a.562.562,0,0,1,.706-.028l2.011,1.482-2.62,3.664a.044.044,0,0,1-.058.012l-3.5-2.123ZM17.108,30.9l1.643,1-.631,1.7H16.094l-.63-1.695Zm0-1.746L14.277,26.69V25.225a6.806,6.806,0,0,0,2.869.662h.016a6.792,6.792,0,0,0,2.776-.64v1.443ZM27.4,13.028v.933a1.274,1.274,0,0,1-1.272,1.273h0l-.011-3.479h.015A1.274,1.274,0,0,1,27.4,13.028Zm-.44-6.544v4.005a2.663,2.663,0,0,0-.832-.133h-.146a4.3,4.3,0,0,0-1.531-2.334A6.044,6.044,0,0,0,26.9,6.034a1.7,1.7,0,0,1,.061.45ZM8.083,15.234a1.274,1.274,0,0,1-1.272-1.273v-.933a1.274,1.274,0,0,1,1.272-1.273H8.1l.011,3.479Zm-.832-4.745V6.484a1.731,1.731,0,0,1,1.6-1.7.7.7,0,0,0,.642-.668A2.829,2.829,0,0,1,12.324,1.4H26.635V2.532a4.609,4.609,0,0,1-4.6,4.6H12.365a1.6,1.6,0,0,0-1.593,1.511,2.129,2.129,0,0,1-1.978,1.71,12.537,12.537,0,0,0-1.544.133ZM12.1,21.88c-1.313-1.293-2.535-2.778-2.587-4.863L9.5,11.674a3.639,3.639,0,0,0,2.659-2.806c.056-.267.1-.334.21-.334h9.7a2.883,2.883,0,0,1,2.649,2.859l.017,5.572c-.037,2.088-1.249,3.581-2.554,4.883-1.353,1.351-2.9,2.605-5.032,2.641-2.131-.021-3.687-1.266-5.05-2.609ZM12.433,32.1a.044.044,0,0,1-.058-.012l-2.62-3.664,2.011-1.482a.562.562,0,0,1,.706.028l3.457,3.006Zm2.4,14.238,1.4-11.35h1.762l1.4,11.35Zm0,0" transform="translate(0 0)"/></g></svg>