<svg xmlns="http://www.w3.org/2000/svg" width="46.073" height="46.073" viewBox="0 0 46.073 46.073"><defs><style>.a{fill:#fff;}</style></defs><g transform="translate(0 0)"><path class="a" d="M64,304h1.486v1.486H64Zm0,0" transform="translate(-58.055 -275.762)"/><path class="a" d="M112,304h1.486v1.486H112Zm0,0" transform="translate(-101.596 -275.762)"/><path class="a" d="M160,304h1.486v1.486H160Zm0,0" transform="translate(-145.138 -275.762)"/><path class="a" d="M44.587,28.981H38.642V26.009H43.1a2.973,2.973,0,0,0,.695-5.863,4.468,4.468,0,0,0-4.41-3.8,4.34,4.34,0,0,0-.743.071V4.458H35.67V0H10.4V1.557A4.407,4.407,0,0,0,8.917,2.1a4.384,4.384,0,0,0-2.229-.61,4.468,4.468,0,0,0-4.41,3.8,2.973,2.973,0,0,0,.695,5.863H7.431V25.266H1.486V41.614H0v4.459H46.073V41.614H44.587Zm-2.229-8.174v.743H43.1a1.486,1.486,0,0,1,0,2.972H31.211a1.486,1.486,0,1,1,0-2.972h.743v-.743a2.975,2.975,0,0,1,2.972-2.972,2.944,2.944,0,0,1,1.781.609l.448.338.448-.338a2.944,2.944,0,0,1,1.781-.609,2.975,2.975,0,0,1,2.972,2.972Zm-5.2-3.849a4.384,4.384,0,0,0-2.229-.61,4.464,4.464,0,0,0-4.2,2.972H25.266v1.486h3.985a2.969,2.969,0,0,0,1.96,5.2h5.945v2.972H23.78V5.945H37.156Zm-2.972-12.5H23.78V1.486h10.4ZM22.294,1.486V4.458H11.89V1.486ZM2.972,9.66a1.486,1.486,0,0,1,0-2.972h.743V5.945A2.975,2.975,0,0,1,6.688,2.972a2.944,2.944,0,0,1,1.781.609l.448.338.448-.338a3,3,0,0,1,1.038-.5V4.458H7.431v5.2ZM8.917,5.945H22.294V28.981H20.807V25.266H8.917ZM2.972,26.752H19.321V33.44H40.128V31.954H20.807V30.467H43.1v1.486H41.615V33.44H43.1v8.174H41.615V34.926H35.67v6.688H34.183V34.926H28.238v6.688H26.752V34.926H20.807v6.688H16.349v-10.4H14.862v10.4H11.89v-10.4H10.4v10.4H7.431v-10.4H5.945v10.4H2.972ZM40.128,41.614H37.156v-5.2h2.972Zm-7.431,0H29.725v-5.2H32.7Zm-7.431,0H22.294v-5.2h2.972Zm19.321,2.972H1.486V43.1h43.1Zm0,0"/><path class="a" d="M112,80h10.4v1.486H112Zm0,0" transform="translate(-101.596 -72.569)"/><path class="a" d="M112,144h10.4v1.486H112Zm0,0" transform="translate(-101.596 -130.624)"/><path class="a" d="M112,208h10.4v1.486H112Zm0,0" transform="translate(-101.596 -188.679)"/><path class="a" d="M128,112h1.486v1.486H128Zm0,0" transform="translate(-116.11 -101.597)"/><path class="a" d="M160,112h1.486v1.486H160Zm0,0" transform="translate(-145.138 -101.597)"/><path class="a" d="M192,112h1.486v1.486H192Zm0,0" transform="translate(-174.165 -101.597)"/><path class="a" d="M128,176h1.486v1.486H128Zm0,0" transform="translate(-116.11 -159.652)"/><path class="a" d="M160,176h1.486v1.486H160Zm0,0" transform="translate(-145.138 -159.652)"/><path class="a" d="M192,176h1.486v1.486H192Zm0,0" transform="translate(-174.165 -159.652)"/><path class="a" d="M128,240h1.486v1.486H128Zm0,0" transform="translate(-116.11 -217.707)"/><path class="a" d="M160,240h1.486v1.486H160Zm0,0" transform="translate(-145.138 -217.707)"/><path class="a" d="M192,240h1.486v1.486H192Zm0,0" transform="translate(-174.165 -217.707)"/><path class="a" d="M272,80h10.4v1.486H272Zm0,0" transform="translate(-246.734 -72.569)"/><path class="a" d="M272,144h10.4v1.486H272Zm0,0" transform="translate(-246.734 -130.624)"/><path class="a" d="M288,112h1.486v1.486H288Zm0,0" transform="translate(-261.248 -101.597)"/><path class="a" d="M320,112h1.486v1.486H320Zm0,0" transform="translate(-290.275 -101.597)"/><path class="a" d="M352,112h1.486v1.486H352Zm0,0" transform="translate(-319.303 -101.597)"/><path class="a" d="M288,176h1.486v1.486H288Zm0,0" transform="translate(-261.248 -159.652)"/><path class="a" d="M320,176h1.486v1.486H320Zm0,0" transform="translate(-290.275 -159.652)"/></g></svg>