<?xml version="1.0" standalone="no"?>
<!DOCTYPE svg PUBLIC "-//W3C//DTD SVG 20010904//EN"
 "http://www.w3.org/TR/2001/REC-SVG-20010904/DTD/svg10.dtd">
<svg version="1.0" xmlns="http://www.w3.org/2000/svg"
 width="1280.000000pt" height="715.000000pt" viewBox="0 0 1280.000000 715.000000"
 preserveAspectRatio="xMidYMid meet">
<metadata>
Created by potrace 1.15, written by Peter Selinger 2001-2017
</metadata>
<g transform="translate(0.000000,715.000000) scale(0.100000,-0.100000)"
fill="#000000" stroke="none">
<path d="M6920 7144 c0 -2 385 -508 856 -1125 471 -616 853 -1123 849 -1127
-3 -4 -97 -25 -208 -47 l-202 -41 -3 -49 c-2 -28 4 -255 12 -505 9 -250 30
-862 46 -1360 17 -498 36 -1075 43 -1282 7 -207 16 -380 19 -383 4 -4 209 77
457 180 250 103 461 185 473 183 29 -4 -991 -638 -1026 -638 -13 0 -165 20
-337 46 -1298 188 -2690 385 -2719 385 -19 0 -276 -56 -570 -125 -294 -70
-623 -147 -732 -172 l-196 -46 -111 68 -111 69 0 58 c0 48 45 1131 90 2162 28
651 50 1159 50 1173 0 12 4 12 22 -4 23 -20 17 -3 -10 28 -11 13 -13 31 -8 76
l7 58 -173 170 -173 170 -732 998 -733 997 -428 -573 c-236 -315 -636 -851
-890 -1190 -254 -340 -459 -618 -457 -618 3 0 296 271 653 602 356 332 784
730 951 885 167 156 307 283 312 283 5 0 1061 -1181 1219 -1365 15 -17 23
-119 64 -810 25 -434 75 -1298 112 -1918 36 -621 64 -1131 61 -1133 -2 -3 -22
4 -43 14 -35 17 -100 23 -574 46 -294 15 -607 31 -695 36 -88 5 -252 14 -365
20 -113 6 -288 15 -390 20 -474 26 -937 50 -959 50 l-24 0 7 602 c3 332 11
981 16 1443 5 462 11 995 14 1185 4 349 -2 360 -23 45 -6 -88 -40 -574 -76
-1080 -36 -506 -85 -1208 -110 -1560 -25 -352 -49 -691 -54 -753 l-9 -112 205
-378 c113 -207 209 -381 213 -385 4 -4 94 -19 201 -32 107 -13 857 -105 1666
-205 l1473 -181 167 11 c93 5 492 28 888 50 396 22 875 49 1065 60 190 11 548
31 795 45 248 14 608 34 800 45 402 23 1042 59 1685 95 245 14 535 30 645 36
l200 11 495 140 c272 76 576 162 675 190 l180 50 492 321 c271 176 491 323
488 325 -3 3 -418 47 -922 98 l-918 93 585 -4 c322 -3 809 -8 1083 -12 l497
-6 0 176 0 177 -62 0 c-35 0 -178 -7 -318 -15 -140 -8 -256 -12 -259 -9 -3 2
-7 538 -9 1189 l-5 1185 22 0 c19 0 21 5 20 48 -1 26 -4 61 -8 77 l-6 30 -575
31 c-316 17 -578 28 -582 25 -4 -3 -3 -49 2 -101 5 -52 10 -500 10 -995 0
-495 3 -1018 7 -1162 l6 -263 50 0 49 0 -6 1008 c-3 554 -9 1083 -12 1175 l-6
168 108 -3 109 -3 3 -1100 c2 -605 7 -1103 10 -1106 4 -4 102 -39 217 -79 116
-39 244 -83 285 -97 41 -15 79 -29 83 -34 12 -9 -39 -12 -943 -59 -421 -22
-1038 -54 -1373 -71 -334 -18 -609 -30 -610 -28 -6 7 92 3052 98 3057 3 3 204
-15 447 -39 l442 -44 1 -30 c1 -17 2 -529 3 -1139 1 -610 4 -1107 7 -1104 3 3
10 99 15 214 6 115 24 477 40 804 16 327 39 788 51 1023 l21 429 669 1115
c368 614 668 1117 667 1118 -2 1 -295 -30 -653 -71 -357 -40 -1014 -113 -1460
-163 l-810 -91 -445 101 c-245 55 -587 131 -760 170 -173 38 -332 74 -352 78
-21 5 -38 7 -38 5z m4866 -2880 l122 -7 4 -1116 c2 -614 2 -1119 -2 -1123 -5
-7 -537 86 -547 96 -3 3 0 308 6 678 6 370 14 857 18 1082 l6 409 136 -7 c75
-3 191 -9 257 -12z"/>
<path d="M11509 3180 c-9 -47 -15 -87 -13 -89 4 -4 124 -30 144 -31 8 0 -8 15
-35 34 -68 45 -73 53 -77 116 l-3 55 -16 -85z"/>
<path d="M10889 5939 l-657 -1149 74 -93 c41 -50 79 -92 84 -92 6 0 268 440
582 978 315 537 574 977 577 976 3 0 246 -380 540 -845 294 -464 538 -843 541
-842 4 2 43 25 88 52 l80 50 -16 31 c-44 82 -1227 2085 -1232 2085 -3 -1 -300
-518 -661 -1151z"/>
<path d="M5954 5826 c-428 -647 -783 -1175 -788 -1176 -4 0 -6 8 -4 18 3 9
305 517 672 1127 426 710 661 1111 653 1113 -8 2 -376 -38 -818 -87 -442 -50
-1094 -123 -1448 -162 l-643 -72 -252 56 c-138 31 -492 111 -786 177 -294 66
-540 119 -545 118 -6 -2 357 -482 807 -1068 450 -586 869 -1132 932 -1215
l114 -150 -38 -1670 c-20 -919 -36 -1671 -35 -1673 2 -3 1208 311 1455 378
l65 18 -70 1 c-38 0 -320 -13 -625 -28 -305 -15 -557 -26 -559 -25 -4 4 89
3057 94 3062 3 3 887 -86 890 -90 2 -2 23 -588 49 -1303 26 -715 48 -1313 49
-1330 5 -61 17 690 28 1695 6 569 14 1038 18 1042 3 3 44 13 90 22 47 9 90 21
97 28 8 9 1359 1690 1459 1816 2 2 278 -343 614 -765 l612 -768 -6 -500 c-11
-1021 -44 -3048 -49 -3053 -3 -3 -2163 60 -2456 72 -63 3 -110 3 -105 0 6 -2
570 -78 1255 -169 685 -91 1255 -168 1268 -170 12 -3 22 -12 22 -20 0 -13 19
-15 138 -9 75 3 143 7 150 10 9 2 12 35 12 117 0 93 -185 3330 -206 3606 -3
47 -2 81 3 78 8 -5 402 38 408 45 3 2 -1704 2041 -1734 2071 -4 4 -358 -521
-787 -1167z"/>
<path d="M6840 4611 l-405 -66 4 -110 c14 -416 38 -945 43 -951 8 -7 705 90
715 100 4 3 15 118 24 254 10 136 28 371 39 524 24 336 24 318 3 317 -10 -1
-200 -31 -423 -68z"/>
<path d="M964 4358 c4 -139 9 -378 12 -530 6 -245 8 -278 23 -282 35 -10 461
-69 465 -65 3 2 -5 242 -17 533 -19 444 -24 530 -37 537 -14 7 -393 59 -433
59 -17 0 -18 -13 -13 -252z"/>
<path d="M1573 4473 c3 -32 14 -273 24 -537 12 -346 21 -480 29 -483 17 -6
708 -111 712 -108 6 5 83 1067 78 1072 -6 6 -787 112 -825 113 -23 0 -23 -2
-18 -57z"/>
<path d="M6043 4481 c-116 -20 -214 -38 -216 -41 -6 -6 13 -1043 19 -1049 2
-2 112 11 245 30 l242 34 -6 105 c-4 58 -14 297 -24 533 -15 373 -19 427 -32
426 -9 -1 -111 -18 -228 -38z"/>
<path d="M986 3371 c-5 -13 16 -1037 22 -1043 8 -8 503 -25 507 -18 2 5 -16
475 -32 814 l-8 160 -243 46 c-134 26 -244 44 -246 41z"/>
<path d="M6792 3315 c-167 -18 -304 -35 -306 -36 -1 -2 1 -85 5 -184 4 -99 13
-308 19 -465 6 -157 13 -286 15 -289 7 -6 578 143 589 155 7 6 23 173 39 415
16 222 31 412 33 422 7 23 -22 22 -394 -18z"/>
<path d="M6086 3241 l-239 -25 8 -521 c4 -286 9 -522 11 -524 4 -4 489 120
503 128 10 7 -27 953 -37 962 -4 3 -114 -6 -246 -20z"/>
<path d="M1626 3173 c2 -43 11 -256 20 -472 8 -217 16 -397 19 -399 6 -7 585
-25 592 -18 8 8 64 748 61 801 l-3 40 -325 62 c-179 34 -335 62 -347 63 -20 0
-21 -3 -17 -77z"/>
</g>
</svg>
