<svg xmlns="http://www.w3.org/2000/svg" xmlns:xlink="http://www.w3.org/1999/xlink" width="375" height="413" viewBox="0 0 375 413"><defs><style>.a{fill:#fff;stroke:#707070;}.b{clip-path:url(#a);}.c{fill:rgba(242,242,242,0.64);opacity:0.55;}.d{fill:url(#b);}.e{fill:url(#c);}</style><clipPath id="a"><rect class="a" width="375" height="413"/></clipPath><linearGradient id="b" x1="0.773" y1="0.865" x2="0.866" gradientUnits="objectBoundingBox"><stop offset="0" stop-color="#f7f7f7"/><stop offset="1" stop-color="#f9f9f9" stop-opacity="0"/></linearGradient><linearGradient id="c" x1="0.5" x2="0.5" y2="1" gradientUnits="objectBoundingBox"><stop offset="0" stop-color="#f6f6f6" stop-opacity="0.031"/><stop offset="1" stop-color="#f5f5f5" stop-opacity="0.91"/></linearGradient></defs><g class="b"><g transform="translate(-77 -19)"><path class="c" d="M577,373.505V0H50.868S-28.019,24.549,10.686,120.951c18.635,48.739,65.94,50.172,116.829,60.207s50.531,59.131,52.322,70.6,11.109,82.067,107.153,92.1c32.612,4.032,34.045-5.286,62.715,23.025s97.925,82.784,133.9,68.091S577,373.505,577,373.505Z" transform="translate(-29.564 -57.797) rotate(8)"/><path class="d" d="M517.4,375.719s-55.906,16.127-70.958-7.884,18.277-62.357-27.953-103.928-90.131,16.306-122.026-2.329S270.3,197.07,222.637,201.012s-117.994,32.612-182.5-14.693S8.246,0,8.246,0H517.4Z" transform="translate(37.015 -74.28) rotate(8)"/><path class="e" d="M593.991,267.848s-10.3-59.959-67.227-69.044-79.34,43.607-121.13,25.437-2.423-67.227-65.41-93.27S277.842,179.424,225.15,171.55c-30.585-5.451-28.768-36.339-69.953-35.128s-42.244,49.058-87.819,46.029S0,146.719,0,86.154,89.939,0,89.939,0L589.9,3.331Z" transform="translate(-29.94 -87.971) rotate(8)"/></g></g></svg>